<svg width="26" height="23" viewBox="0 0 26 23" fill="none" xmlns="http://www.w3.org/2000/svg">
<path d="M4.58824 1.4623e-06H0M4.95529 0L8.25883 12.0213C8.53456 12.9693 9.10725 13.8032 9.89222 14.3996C10.6772 14.9961 11.6328 15.3234 12.6177 15.3333H25.9847V0H4.95529ZM15.2941 20.7C15.2941 21.9703 14.267 23 13 23C11.733 23 10.7059 21.9703 10.7059 20.7C10.7059 19.4297 11.733 18.4 13 18.4C14.267 18.4 15.2941 19.4297 15.2941 20.7ZM26 20.7C26 21.9703 24.9729 23 23.7059 23C22.4389 23 21.4118 21.9703 21.4118 20.7C21.4118 19.4297 22.4389 18.4 23.7059 18.4C24.9729 18.4 26 19.4297 26 20.7Z" stroke="#6D6553" stroke-linecap="round" stroke-linejoin="round"/>
</svg>
